<svg width="11" height="18" viewBox="0 0 11 18" fill="none" xmlns="http://www.w3.org/2000/svg">
<path id="Vector" d="M10.9964 0.505747C10.9964 0.373182 10.9437 0.246047 10.85 0.15231C10.7563 0.0585721 10.6291 0.00591088 10.4966 0.00591088H7.99737C6.73891 -0.0567777 5.50679 0.381179 4.57022 1.22409C3.63365 2.067 3.06878 3.24634 2.99901 4.50443V7.20355H0.499836C0.367271 7.20355 0.240136 7.25621 0.146399 7.34995C0.0526612 7.44368 0 7.57082 0 7.70338V10.3025C0 10.4351 0.0526612 10.5622 0.146399 10.656C0.240136 10.7497 0.367271 10.8024 0.499836 10.8024H2.99901V17.5002C2.99901 17.6327 3.05168 17.7599 3.14541 17.8536C3.23915 17.9473 3.36629 18 3.49885 18H6.49787C6.63043 18 6.75757 17.9473 6.8513 17.8536C6.94504 17.7599 6.9977 17.6327 6.9977 17.5002V10.8024H9.61684C9.72799 10.804 9.83651 10.7685 9.92522 10.7015C10.0139 10.6345 10.0778 10.5398 10.1067 10.4325L10.8264 7.83334C10.8463 7.75949 10.849 7.68205 10.8343 7.607C10.8195 7.53195 10.7877 7.46129 10.7414 7.40045C10.695 7.33961 10.6353 7.29023 10.5669 7.25609C10.4984 7.22195 10.4231 7.20398 10.3466 7.20355H6.9977V4.50443C7.02257 4.25699 7.13877 4.0277 7.32362 3.86134C7.50847 3.69497 7.74869 3.60348 7.99737 3.60473H10.4966C10.6291 3.60473 10.7563 3.55207 10.85 3.45833C10.9437 3.36459 10.9964 3.23746 10.9964 3.10489V0.505747Z" fill="#E8F2FF"/>
</svg>
