<svg width="18" height="18" viewBox="0 0 18 18" fill="none" xmlns="http://www.w3.org/2000/svg">
<g id="Group">
<path id="Vector" d="M12.1504 5.39945C11.3839 5.39682 10.6245 5.54535 9.91546 5.83653C9.20647 6.12772 8.56185 6.55584 8.01848 7.09642C7.47512 7.63699 7.04369 8.27941 6.74886 8.98689C6.45403 9.69438 6.3016 10.4531 6.30029 11.2195V17.0996C6.30029 17.3383 6.39512 17.5672 6.5639 17.736C6.73269 17.9048 6.96161 17.9996 7.2003 17.9996H9.30033C9.53903 17.9996 9.76795 17.9048 9.93673 17.736C10.1055 17.5672 10.2003 17.3383 10.2003 17.0996V11.2195C10.2001 10.9469 10.2574 10.6773 10.3684 10.4283C10.4794 10.1794 10.6416 9.95655 10.8444 9.77445C11.0473 9.59234 11.2862 9.45504 11.5457 9.37148C11.8052 9.28792 12.0794 9.25999 12.3504 9.2895C12.8364 9.35071 13.283 9.58817 13.6056 9.95682C13.9282 10.3255 14.1042 10.7997 14.1004 11.2895V17.0996C14.1004 17.3383 14.1952 17.5672 14.364 17.736C14.5328 17.9048 14.7617 17.9996 15.0004 17.9996H17.1004C17.3391 17.9996 17.568 17.9048 17.7368 17.736C17.9056 17.5672 18.0004 17.3383 18.0004 17.0996V11.2195C17.9991 10.4531 17.8467 9.69438 17.5519 8.98689C17.257 8.27941 16.8256 7.63699 16.2822 7.09642C15.7389 6.55584 15.0943 6.12772 14.3853 5.83653C13.6763 5.54535 12.9168 5.39682 12.1504 5.39945Z" fill="#E8F2FF"/>
<path id="Vector_2" d="M3.60004 6.2998H0.900011C0.402949 6.2998 0 6.70275 0 7.19982V17.0999C0 17.597 0.402949 18 0.900011 18H3.60004C4.09711 18 4.50006 17.597 4.50006 17.0999V7.19982C4.50006 6.70275 4.09711 6.2998 3.60004 6.2998Z" fill="#E8F2FF"/>
<path id="Vector_3" d="M2.25003 4.50006C3.49268 4.50006 4.50006 3.49268 4.50006 2.25003C4.50006 1.00737 3.49268 0 2.25003 0C1.00737 0 0 1.00737 0 2.25003C0 3.49268 1.00737 4.50006 2.25003 4.50006Z" fill="#E8F2FF"/>
</g>
</svg>
