<svg width="23" height="18" viewBox="0 0 23 18" fill="none" xmlns="http://www.w3.org/2000/svg">
<path d="M22.1474 2.13125C21.3329 2.49214 20.458 2.73599 19.5382 2.84621C20.4765 2.28438 21.1964 1.39287 21.5358 0.331636C20.658 0.852498 19.6855 1.23095 18.6506 1.43384C17.8215 0.552076 16.6413 0 15.3342 0C12.8255 0 10.7908 2.03468 10.7908 4.54536C10.7908 4.9004 10.8318 5.24569 10.9079 5.57928C7.13016 5.38908 3.78357 3.57971 1.5421 0.83104C1.15194 1.50407 0.927602 2.28438 0.927602 3.11542C0.927602 4.69167 1.73036 6.08356 2.94863 6.89802C2.20342 6.87364 1.50309 6.66978 0.890537 6.32936V6.38789C0.890537 8.58935 2.45605 10.426 4.5356 10.8435C4.15325 10.9469 3.75236 11.0015 3.33879 11.0015C3.04617 11.0015 2.76038 10.9742 2.48336 10.9215C3.06178 12.726 4.73946 14.0409 6.7283 14.076C5.17254 15.2952 3.21296 16.0219 1.08464 16.0219C0.717892 16.0219 0.356019 16.0004 0 15.9585C2.01127 17.2489 4.39905 18 6.96435 18C15.3235 18 19.8932 11.0766 19.8932 5.07207C19.8932 4.87699 19.8884 4.67996 19.8796 4.48488C20.7672 3.84307 21.5378 3.04422 22.1454 2.13417L22.1474 2.13125Z" fill="white"/>
</svg>
