<svg width="22" height="17" viewBox="0 0 22 17" fill="none" xmlns="http://www.w3.org/2000/svg">
<g id="&#240;&#159;&#166;&#134; icon &#34;bed&#34;">
<g id="Group">
<path id="Vector" d="M20.2311 7.92308V2.53846C20.2311 1.69231 19.5388 1 18.6926 1H3.30799C2.46184 1 1.76953 1.69231 1.76953 2.53846V7.92308" stroke="black" stroke-miterlimit="10"/>
<path id="Vector_2" d="M4.8457 7.92311V6.38465C4.8457 5.5385 5.53801 4.84619 6.38416 4.84619H9.46109C10.3072 4.84619 10.9995 5.5385 10.9995 6.38465V7.92311" stroke="black" stroke-miterlimit="10"/>
<path id="Vector_3" d="M11 7.92311V6.38465C11 5.5385 11.6923 4.84619 12.5385 4.84619H15.6154C16.4615 4.84619 17.1538 5.5385 17.1538 6.38465V7.92311" stroke="black" stroke-miterlimit="10"/>
<path id="Vector_4" d="M1 9.46156V15.6154H3.30769V14.0769H18.6923V15.6154H21V9.46156C21 8.6154 20.3077 7.9231 19.4615 7.9231H2.53846C1.69231 7.9231 1 8.6154 1 9.46156Z" stroke="black" stroke-miterlimit="10"/>
</g>
</g>
</svg>
