<svg width="14" height="14" viewBox="0 0 14 14" fill="none" xmlns="http://www.w3.org/2000/svg">
<g id="&#240;&#159;&#166;&#134; icon &#34;chart-line&#34;">
<path id="Vector" d="M3.85 9.8C4.12848 9.8 4.39555 9.68937 4.59246 9.49246C4.78938 9.29555 4.9 9.02848 4.9 8.75C4.90342 8.71508 4.90342 8.67992 4.9 8.645L6.853 6.692H7.014H7.175L8.302 7.819C8.302 7.819 8.302 7.854 8.302 7.875C8.302 8.15348 8.41262 8.42055 8.60954 8.61746C8.80645 8.81437 9.07352 8.925 9.352 8.925C9.63048 8.925 9.89755 8.81437 10.0945 8.61746C10.2914 8.42055 10.402 8.15348 10.402 7.875V7.819L12.95 5.25C13.1577 5.25 13.3607 5.18842 13.5333 5.07304C13.706 4.95767 13.8406 4.79368 13.9201 4.60182C13.9995 4.40996 14.0203 4.19884 13.9798 3.99516C13.9393 3.79148 13.8393 3.60438 13.6925 3.45754C13.5456 3.31069 13.3585 3.21069 13.1548 3.17018C12.9512 3.12966 12.74 3.15045 12.5482 3.22993C12.3563 3.3094 12.1923 3.44398 12.077 3.61665C11.9616 3.78932 11.9 3.99233 11.9 4.2C11.8966 4.23492 11.8966 4.27008 11.9 4.305L9.373 6.832H9.261L8.05 5.6C8.05 5.32152 7.93938 5.05445 7.74246 4.85754C7.54555 4.66062 7.27848 4.55 7 4.55C6.72152 4.55 6.45445 4.66062 6.25754 4.85754C6.06062 5.05445 5.95 5.32152 5.95 5.6L3.85 7.7C3.57152 7.7 3.30445 7.81062 3.10754 8.00754C2.91062 8.20445 2.8 8.47152 2.8 8.75C2.8 9.02848 2.91062 9.29555 3.10754 9.49246C3.30445 9.68937 3.57152 9.8 3.85 9.8ZM13.3 12.6H1.4V0.7C1.4 0.514348 1.32625 0.336301 1.19497 0.205025C1.0637 0.0737498 0.885652 0 0.7 0C0.514348 0 0.336301 0.0737498 0.205025 0.205025C0.0737498 0.336301 0 0.514348 0 0.7V13.3C0 13.4857 0.0737498 13.6637 0.205025 13.795C0.336301 13.9263 0.514348 14 0.7 14H13.3C13.4857 14 13.6637 13.9263 13.795 13.795C13.9263 13.6637 14 13.4857 14 13.3C14 13.1143 13.9263 12.9363 13.795 12.805C13.6637 12.6737 13.4857 12.6 13.3 12.6Z" fill="#001833"/>
</g>
</svg>
