<svg width="26" height="26" viewBox="0 0 26 26" fill="none" xmlns="http://www.w3.org/2000/svg">
<g id="Iconsax/Linear/location">
<path id="Vector" d="M13.0001 14.5492C13.444 14.5492 13.8835 14.4618 14.2936 14.2919C14.7037 14.122 15.0763 13.8731 15.3901 13.5592C15.704 13.2453 15.953 12.8727 16.1228 12.4627C16.2927 12.0526 16.3801 11.6131 16.3801 11.1692C16.3801 10.7253 16.2927 10.2858 16.1228 9.87571C15.953 9.46563 15.704 9.09303 15.3901 8.77916C15.0763 8.4653 14.7037 8.21633 14.2936 8.04647C13.8835 7.87661 13.444 7.78918 13.0001 7.78918C12.1037 7.78918 11.244 8.14529 10.6101 8.77916C9.97622 9.41304 9.62012 10.2728 9.62012 11.1692C9.62012 12.0656 9.97622 12.9253 10.6101 13.5592C11.244 14.1931 12.1037 14.5492 13.0001 14.5492Z" stroke="#ABABAB" stroke-width="1.5"/>
<path id="Vector_2" d="M3.92168 9.19752C6.05584 -0.184144 19.955 -0.17331 22.0783 9.20836C23.3242 14.7117 19.9008 19.37 16.9 22.2517C15.8514 23.263 14.4514 23.8281 12.9946 23.8281C11.5378 23.8281 10.1378 23.263 9.08918 22.2517C6.09918 19.37 2.67584 14.7009 3.92168 9.19752Z" stroke="#ABABAB" stroke-width="1.5"/>
</g>
</svg>
