<svg width="96" height="19" viewBox="0 0 96 19" fill="none" xmlns="http://www.w3.org/2000/svg">
<g id="Group 104">
<path id="Vector" d="M9.99967 14.8308L15.6647 18.2499L14.1613 11.8058L19.1663 7.46992L12.5755 6.91075L9.99967 0.833252L7.42384 6.91075L0.833008 7.46992L5.83801 11.8058L4.33467 18.2499L9.99967 14.8308Z" fill="#0068EF"/>
<path id="Vector_2" d="M28.9997 14.8308L34.6647 18.2499L33.1613 11.8058L38.1663 7.46992L31.5755 6.91075L28.9997 0.833252L26.4238 6.91075L19.833 7.46992L24.838 11.8058L23.3347 18.2499L28.9997 14.8308Z" fill="#0068EF"/>
<path id="Vector_3" d="M47.9997 14.8308L53.6647 18.2499L52.1613 11.8058L57.1663 7.46992L50.5755 6.91075L47.9997 0.833252L45.4238 6.91075L38.833 7.46992L43.838 11.8058L42.3347 18.2499L47.9997 14.8308Z" fill="#0068EF"/>
<path id="Vector_4" d="M66.9997 14.8308L72.6647 18.2499L71.1613 11.8058L76.1663 7.46992L69.5755 6.91075L66.9997 0.833252L64.4238 6.91075L57.833 7.46992L62.838 11.8058L61.3347 18.2499L66.9997 14.8308Z" fill="#0068EF"/>
<path id="Vector_5" d="M86.1667 14.8308L91.8317 18.2499L90.3283 11.8058L95.3333 7.46992L88.7425 6.91075L86.1667 0.833252L83.5908 6.91075L77 7.46992L82.005 11.8058L80.5017 18.2499L86.1667 14.8308Z" fill="#0068EF"/>
<g id="Mask group">
<mask id="mask0_236_1472" style="mask-type:alpha" maskUnits="userSpaceOnUse" x="77" y="0" width="19" height="19">
<path id="Vector_6" d="M86.1667 14.8308L91.8317 18.2499L90.3283 11.8058L95.3333 7.46992L88.7425 6.91075L86.1667 0.833252L83.5908 6.91075L77 7.46992L82.005 11.8058L80.5017 18.2499L86.1667 14.8308Z" fill="#0068EF"/>
</mask>
<g mask="url(#mask0_236_1472)">
<rect id="Rectangle 118" x="85" y="-1" width="15" height="19" fill="#D7D7D7"/>
</g>
</g>
</g>
</svg>
