<svg width="14" height="15" viewBox="0 0 14 15" fill="none" xmlns="http://www.w3.org/2000/svg">
<g id="&#240;&#159;&#166;&#134; icon &#34;sale coupon 1&#34;">
<path id="Vector" fill-rule="evenodd" clip-rule="evenodd" d="M0.921002 6.78408C1.04215 6.80998 1.18421 6.80998 1.46833 6.80998C1.85114 6.80998 2.16147 7.1902 2.16147 7.6592C2.16147 8.1282 1.85114 8.50841 1.46833 8.50841C1.18992 8.50841 1.05072 8.50842 0.930172 8.53408C0.473167 8.63144 0.0974687 9.02426 0.021145 9.48456C0.00101204 9.60596 0.00684286 9.73207 0.0185046 9.98431C0.0555405 10.7854 0.138185 11.3579 0.322605 11.8526C0.692009 12.8435 1.22502 13.4641 2.03375 13.9167C2.76535 14.3261 3.82119 14.5 5.70189 14.5H8.2981C10.1788 14.5 11.2347 14.3261 11.9663 13.9167C12.775 13.4641 13.308 12.8435 13.6774 11.8526C13.8618 11.3579 13.9445 10.7854 13.9815 9.98431C13.9932 9.73207 13.999 9.60596 13.9789 9.48456C13.9025 9.02426 13.5269 8.63144 13.0698 8.53414C12.9493 8.50842 12.8101 8.50841 12.5317 8.50841C12.1489 8.50841 11.8385 8.1282 11.8385 7.6592C11.8385 7.1902 12.1489 6.80998 12.5317 6.80998C12.8158 6.80998 12.9579 6.80998 13.079 6.78408C13.5326 6.6869 13.9 6.30871 13.9834 5.85307C14.0057 5.73138 14.0016 5.59847 13.9935 5.33264C13.9638 4.36145 13.8853 3.70494 13.6774 3.14738C13.308 2.15654 12.775 1.53592 11.9663 1.08333C11.2347 0.67391 10.1788 0.5 8.2981 0.5H5.70189C3.82119 0.5 2.76535 0.67391 2.03375 1.08333C1.22502 1.53592 0.692009 2.15654 0.322605 3.14738C0.114737 3.70494 0.0361698 4.36145 0.00647407 5.33265C-0.00165371 5.59847 -0.0057176 5.73138 0.0165562 5.85307C0.0999577 6.30871 0.467391 6.68695 0.921002 6.78408ZM4.84174 8.79291C4.60334 9.03091 4.60334 9.41684 4.84174 9.65484C5.08014 9.89284 5.46665 9.89284 5.70504 9.65484L9.15828 6.20711C9.39669 5.9691 9.39669 5.5832 9.15828 5.34518C8.91987 5.10716 8.53336 5.10716 8.29495 5.34518L4.84174 8.79291ZM5.24721 6.91667C4.92453 6.91667 4.66294 6.65551 4.66294 6.33334V5.75C4.66294 5.42784 4.92453 5.16667 5.24721 5.16667C5.56989 5.16667 5.83148 5.42783 5.83148 5.75V6.33334C5.83148 6.65551 5.56989 6.91667 5.24721 6.91667ZM8.16854 9.25001C8.16854 9.57218 8.43011 9.83334 8.75281 9.83334C9.07551 9.83334 9.33707 9.57218 9.33707 9.25001V8.66667C9.33707 8.3445 9.07551 8.08334 8.75281 8.08334C8.43011 8.08334 8.16854 8.3445 8.16854 8.66667V9.25001Z" fill="#001833"/>
</g>
</svg>
