<svg width="70" height="70" viewBox="0 0 70 70" fill="none" xmlns="http://www.w3.org/2000/svg">
<g id="Group 35">
<g id="Rectangle 100" filter="url(#filter0_d_149_796)">
<rect x="10" y="9" width="50" height="50" rx="7" fill="#FFC303"/>
</g>
<g id="&#240;&#159;&#166;&#134; icon &#34;pricetag discount&#34;">
<path id="Vector" d="M20.623 30.361C20.623 30.0304 20.7544 29.7132 20.9882 29.4794L28.7272 21.7404L36.4662 29.4794C36.7001 29.7132 36.8314 30.0304 36.8314 30.361V48.5465C36.8314 49.2351 36.2732 49.7933 35.5846 49.7933H21.8698C21.1812 49.7933 20.623 49.2351 20.623 48.5465V30.361Z" fill="#FFC303"/>
<g id="Group">
<path id="Vector_2" d="M29.351 18.6234C29.351 18.2791 29.0719 18 28.7276 18C28.3833 18 28.1042 18.2791 28.1042 18.6234V21.7404C28.1042 21.9057 28.1699 22.0643 28.2868 22.1812L36.0258 29.9202C36.1427 30.0371 36.2084 30.1957 36.2084 30.361V48.5465C36.2084 48.8908 35.9293 49.1699 35.585 49.1699H21.8702C21.5259 49.1699 21.2468 48.8908 21.2468 48.5465V30.361C21.2468 30.1957 21.3125 30.0371 21.4294 29.9202L26.3631 24.9865C26.6065 24.743 26.6065 24.3483 26.3631 24.1049C26.1197 23.8614 25.7249 23.8614 25.4815 24.1049L20.5478 29.0386C20.1971 29.3893 20 29.865 20 30.361V48.5465C20 49.5794 20.8373 50.4167 21.8702 50.4167H35.585C36.6179 50.4167 37.4552 49.5794 37.4552 48.5465V30.361C37.4552 29.865 37.2581 29.3893 36.9074 29.0386L29.351 21.4822V18.6234Z" fill="#003C8A"/>
<path id="Vector_3" d="M28.7278 30.468C29.4164 30.468 29.9746 29.9098 29.9746 29.2212C29.9746 28.5326 29.4164 27.9744 28.7278 27.9744C28.0391 27.9744 27.481 28.5326 27.481 29.2212C27.481 29.9098 28.0391 30.468 28.7278 30.468Z" fill="#003C8A"/>
<path id="Vector_4" d="M30.9185 36.1674C31.2137 36.3446 31.3095 36.7275 31.1323 37.0227L27.3919 43.2567C27.2148 43.5519 26.8319 43.6477 26.5366 43.4705C26.2414 43.2934 26.1457 42.9104 26.3228 42.6152L30.0632 36.3812C30.2404 36.086 30.6232 35.9903 30.9185 36.1674Z" fill="#003C8A"/>
<path id="Vector_5" d="M31.8443 42.0008C31.8443 42.5173 31.4256 42.9359 30.9092 42.9359C30.3928 42.9359 29.9741 42.5173 29.9741 42.0008C29.9741 41.4844 30.3928 41.0657 30.9092 41.0657C31.4256 41.0657 31.8443 41.4844 31.8443 42.0008Z" fill="#003C8A"/>
<path id="Vector_6" d="M27.4805 37.6371C27.4805 38.1535 27.0619 38.5722 26.5454 38.5722C26.029 38.5722 25.6104 38.1535 25.6104 37.6371C25.6104 37.1206 26.029 36.702 26.5454 36.702C27.0619 36.702 27.4805 37.1206 27.4805 37.6371Z" fill="#003C8A"/>
<path id="Vector_7" d="M29.3555 21.4869L36.9071 29.0386C36.9291 29.0605 36.9504 29.0829 36.9711 29.1058C37.1366 29.2886 37.263 29.5009 37.3451 29.7297L37.3454 29.7304C37.4172 29.9309 37.4549 30.144 37.4549 30.361V48.5465C37.4549 48.5506 37.4549 48.5546 37.4548 48.5586C37.4502 49.3019 37.0118 49.9424 36.38 50.2397C36.1387 50.3532 35.8691 50.4167 35.5847 50.4167H36.38C36.6981 50.42 37.0212 50.3388 37.3166 50.1645L49.0026 43.2689C49.8826 42.7496 50.1841 41.5994 49.676 40.6999L40.7298 24.8632C40.4858 24.4312 40.0839 24.116 39.6126 23.9869L29.3555 21.4869Z" fill="#003C8A"/>
</g>
</g>
</g>
<defs>
<filter id="filter0_d_149_796" x="0" y="0" width="70" height="70" filterUnits="userSpaceOnUse" color-interpolation-filters="sRGB">
<feFlood flood-opacity="0" result="BackgroundImageFix"/>
<feColorMatrix in="SourceAlpha" type="matrix" values="0 0 0 0 0 0 0 0 0 0 0 0 0 0 0 0 0 0 127 0" result="hardAlpha"/>
<feOffset dy="1"/>
<feGaussianBlur stdDeviation="5"/>
<feComposite in2="hardAlpha" operator="out"/>
<feColorMatrix type="matrix" values="0 0 0 0 0 0 0 0 0 0.177536 0 0 0 0 0.408333 0 0 0 0.25 0"/>
<feBlend mode="normal" in2="BackgroundImageFix" result="effect1_dropShadow_149_796"/>
<feBlend mode="normal" in="SourceGraphic" in2="effect1_dropShadow_149_796" result="shape"/>
</filter>
</defs>
</svg>
