<svg width="25" height="24" viewBox="0 0 25 24" fill="none" xmlns="http://www.w3.org/2000/svg">
<g id="Iconsax/Linear/searchnormal">
<path id="Vector" d="M11.375 20C13.7619 20 16.0511 19.0518 17.739 17.364C19.4268 15.6761 20.375 13.3869 20.375 11C20.375 8.61305 19.4268 6.32387 17.739 4.63604C16.0511 2.94821 13.7619 2 11.375 2C8.98805 2 6.69887 2.94821 5.01104 4.63604C3.32321 6.32387 2.375 8.61305 2.375 11C2.375 13.3869 3.32321 15.6761 5.01104 17.364C6.69887 19.0518 8.98805 20 11.375 20ZM19.305 20.69C19.835 22.29 21.045 22.45 21.975 21.05C22.825 19.77 22.265 18.72 20.725 18.72C19.585 18.71 18.945 19.6 19.305 20.69Z" stroke="white" stroke-width="1.5" stroke-linecap="round" stroke-linejoin="round"/>
</g>
</svg>
