<svg width="20" height="20" viewBox="0 0 20 20" fill="none" xmlns="http://www.w3.org/2000/svg">
<g id="Iconsax/Linear/share">
<path id="Vector" d="M14.133 5.14166C15.7997 6.29999 16.9497 8.14166 17.183 10.2667M2.90801 10.3083C3.01278 9.2893 3.33476 8.30458 3.85227 7.42051C4.36977 6.53645 5.07076 5.77358 5.90801 5.18333M6.82467 17.45C7.79134 17.9417 8.89134 18.2167 10.0497 18.2167C11.1663 18.2167 12.2163 17.9667 13.158 17.5083M10.0497 6.41666C10.6641 6.41666 11.2533 6.17258 11.6878 5.73812C12.1223 5.30366 12.3663 4.71441 12.3663 4.09999C12.3663 3.48557 12.1223 2.89632 11.6878 2.46186C11.2533 2.0274 10.6641 1.78333 10.0497 1.78333C9.43526 1.78333 8.846 2.0274 8.41154 2.46186C7.97708 2.89632 7.73301 3.48557 7.73301 4.09999C7.73301 4.71441 7.97708 5.30366 8.41154 5.73812C8.846 6.17258 9.43526 6.41666 10.0497 6.41666ZM4.02467 16.6C4.63909 16.6 5.22835 16.3559 5.66281 15.9215C6.09726 15.487 6.34134 14.8977 6.34134 14.2833C6.34134 13.6689 6.09726 13.0797 5.66281 12.6452C5.22835 12.2107 4.63909 11.9667 4.02467 11.9667C3.41026 11.9667 2.821 12.2107 2.38654 12.6452C1.95208 13.0797 1.70801 13.6689 1.70801 14.2833C1.70801 14.8977 1.95208 15.487 2.38654 15.9215C2.821 16.3559 3.41026 16.6 4.02467 16.6ZM15.9747 16.6C16.5891 16.6 17.1783 16.3559 17.6128 15.9215C18.0473 15.487 18.2913 14.8977 18.2913 14.2833C18.2913 13.6689 18.0473 13.0797 17.6128 12.6452C17.1783 12.2107 16.5891 11.9667 15.9747 11.9667C15.3603 11.9667 14.771 12.2107 14.3365 12.6452C13.9021 13.0797 13.658 13.6689 13.658 14.2833C13.658 14.8977 13.9021 15.487 14.3365 15.9215C14.771 16.3559 15.3603 16.6 15.9747 16.6Z" stroke="#0068EF" stroke-width="1.5" stroke-linecap="round" stroke-linejoin="round"/>
</g>
</svg>
