<svg width="20" height="20" viewBox="0 0 20 20" fill="none" xmlns="http://www.w3.org/2000/svg">
<g id="Iconsax/Linear/discountshape" clip-path="url(#clip0_103_1286)">
<path id="Vector" d="M7.49992 12.5L12.4999 7.5M3.32409 12.2167L2.05742 10.95C1.54076 10.4333 1.54076 9.58333 2.05742 9.06667L3.32409 7.8C3.54076 7.58333 3.71576 7.15833 3.71576 6.85833V5.06667C3.71576 4.33333 4.31576 3.73333 5.04909 3.73333H6.84075C7.14076 3.73333 7.56576 3.55833 7.78242 3.34167L9.04909 2.075C9.56576 1.55833 10.4158 1.55833 10.9324 2.075L12.1991 3.34167C12.4158 3.55833 12.8408 3.73333 13.1408 3.73333H14.9324C15.6658 3.73333 16.2658 4.33333 16.2658 5.06667V6.85833C16.2658 7.15833 16.4408 7.58333 16.6574 7.8L17.9241 9.06667C18.4408 9.58333 18.4408 10.4333 17.9241 10.95L16.6574 12.2167C16.4408 12.4333 16.2658 12.8583 16.2658 13.1583V14.95C16.2658 15.6833 15.6658 16.2833 14.9324 16.2833H13.1408C12.8408 16.2833 12.4158 16.4583 12.1991 16.675L10.9324 17.9417C10.4158 18.4583 9.56576 18.4583 9.04909 17.9417L7.78242 16.675C7.56576 16.4583 7.14076 16.2833 6.84075 16.2833H5.04909C4.31576 16.2833 3.71576 15.6833 3.71576 14.95V13.1583C3.71576 12.85 3.54076 12.425 3.32409 12.2167Z" stroke="#0068EF" stroke-width="1.5" stroke-linecap="round" stroke-linejoin="round"/>
<path id="Vector_2" d="M12.0793 12.0833H12.0868M7.9126 7.91663H7.91926" stroke="#0068EF" stroke-width="2" stroke-linecap="round" stroke-linejoin="round"/>
</g>
<defs>
<clipPath id="clip0_103_1286">
<rect width="20" height="20" fill="white"/>
</clipPath>
</defs>
</svg>
