<svg width="20" height="20" viewBox="0 0 20 20" fill="none" xmlns="http://www.w3.org/2000/svg">
<g id="Iconsax/Linear/user">
<path id="Vector" d="M17.1585 18.3333C17.1585 15.1083 13.9501 12.5 10.0001 12.5C6.05013 12.5 2.8418 15.1083 2.8418 18.3333M10.0001 9.99999C11.1052 9.99999 12.165 9.561 12.9464 8.7796C13.7278 7.9982 14.1668 6.93839 14.1668 5.83332C14.1668 4.72825 13.7278 3.66845 12.9464 2.88704C12.165 2.10564 11.1052 1.66666 10.0001 1.66666C8.89506 1.66666 7.83525 2.10564 7.05385 2.88704C6.27245 3.66845 5.83346 4.72825 5.83346 5.83332C5.83346 6.93839 6.27245 7.9982 7.05385 8.7796C7.83525 9.561 8.89506 9.99999 10.0001 9.99999Z" stroke="#E8F2FF" stroke-width="1.5" stroke-linecap="round" stroke-linejoin="round"/>
</g>
</svg>
