<svg width="21" height="21" viewBox="0 0 21 21" fill="none" xmlns="http://www.w3.org/2000/svg">
<path id="Vector" d="M12.005 16.1576C12.005 16.2378 12.005 16.3179 12.005 16.4115C12.005 17.3333 12.005 18.2552 12.005 19.177C12.005 19.6179 11.8313 19.9652 11.4171 20.1523C11.0564 20.326 10.6957 20.2725 10.3884 20.032C10.0945 19.8049 9.9876 19.4843 9.9876 19.1236C9.9876 18.2151 9.9876 17.2932 9.9876 16.3848C9.9876 16.3046 9.9876 16.2378 9.9876 16.1443C9.86736 16.1576 9.82728 16.2378 9.77384 16.3046C9.01232 17.0661 8.2508 17.8276 7.48927 18.5892C7.20871 18.8697 6.86135 18.99 6.46055 18.8697C6.08647 18.7495 5.85935 18.4956 5.76583 18.1216C5.68567 17.7341 5.80591 17.4268 6.08647 17.1463C7.32895 15.9038 8.57144 14.6613 9.81392 13.4188C9.94752 13.2986 10.001 13.1783 9.9876 13.0047C9.97424 12.4836 9.97424 11.9626 9.9876 11.4415C9.9876 11.2946 9.94752 11.2545 9.80056 11.2545C9.2528 11.2678 8.69168 11.2678 8.14392 11.2545C8.01032 11.2545 7.93016 11.3213 7.85 11.4015C6.60751 12.6439 5.35167 13.8998 4.10918 15.1423C3.7351 15.5163 3.29422 15.5965 2.88006 15.3694C2.26549 15.0487 2.14525 14.2605 2.66629 13.7528C3.32094 13.0848 3.98894 12.4302 4.65694 11.7622C4.79054 11.6152 4.95086 11.4683 5.12454 11.3079C5.01766 11.2411 4.9375 11.2545 4.85734 11.2545C3.9355 11.2545 3.01366 11.2545 2.09181 11.2545C1.47725 11.2545 1.04973 10.8938 0.996288 10.3326C0.942848 9.79824 1.31693 9.31728 1.85133 9.26384C2.34565 9.2104 2.83998 9.25048 3.32094 9.23712C3.90878 9.23712 4.48326 9.23712 5.08446 9.23712C5.08446 9.13024 4.99094 9.09016 4.9375 9.02336C4.17598 8.26184 3.41446 7.50031 2.65293 6.73879C2.37237 6.45823 2.25213 6.11087 2.37237 5.71007C2.49261 5.33599 2.74646 5.0955 3.12054 5.01534C3.50798 4.92182 3.82862 5.06878 4.10918 5.34935C5.33831 6.59183 6.58079 7.82096 7.82328 9.06344C7.94352 9.19704 8.06376 9.25048 8.23744 9.23712C8.75848 9.22376 9.27952 9.22376 9.80056 9.23712C9.93416 9.23712 9.9876 9.2104 9.9876 9.06344C9.97424 8.51568 9.97424 7.95456 9.9876 7.39343C9.9876 7.25983 9.9208 7.17967 9.84064 7.09951C8.5848 5.84367 7.32895 4.60118 6.08647 3.34534C5.60551 2.85102 5.64559 2.14293 6.19335 1.76885C6.60751 1.47493 7.10183 1.52837 7.50263 1.91581C8.27752 2.67734 9.03904 3.45222 9.80056 4.21374C9.854 4.25382 9.88072 4.30726 9.93416 4.37406C10.0143 4.28054 9.9876 4.18702 9.9876 4.12022C9.9876 3.18502 9.9876 2.26317 9.9876 1.32797C9.9876 0.713407 10.3617 0.299246 10.9362 0.259166C11.4572 0.219085 11.9248 0.593167 11.9916 1.11421C12.0317 1.60853 11.9916 2.11621 12.005 2.62389C12.005 3.19838 12.005 3.7595 12.005 4.33398C12.1119 4.33398 12.1386 4.25382 12.192 4.20038C12.9669 3.43886 13.7284 2.66398 14.5033 1.90245C15.011 1.39477 15.7725 1.48829 16.1199 2.08949C16.347 2.50365 16.2802 2.97126 15.9195 3.33198C15.2381 4.01334 14.5567 4.6947 13.8887 5.37607C13.3143 5.95055 12.7264 6.53839 12.1519 7.11287C12.0584 7.20639 12.0183 7.29991 12.0183 7.43351C12.0317 7.96792 12.0317 8.50232 12.0183 9.02336C12.0183 9.2104 12.0718 9.23712 12.2455 9.23712C12.7665 9.22376 13.2875 9.22376 13.8086 9.23712C13.9555 9.23712 14.0491 9.19704 14.1559 9.09016C15.4118 7.83432 16.6543 6.57847 17.9101 5.32263C18.4178 4.81494 19.1793 4.8951 19.5267 5.48295C19.7672 5.89711 19.7004 6.36471 19.3396 6.73879C18.5648 7.52704 17.7899 8.28856 17.0284 9.05008C16.9883 9.09016 16.9348 9.13024 16.8814 9.18368C16.9616 9.26384 17.0551 9.23712 17.1352 9.23712C18.0704 9.23712 18.9923 9.23712 19.9275 9.23712C20.542 9.23712 20.9562 9.6112 20.9963 10.1857C21.0364 10.7067 20.6623 11.1743 20.1412 11.2411C19.6469 11.2946 19.1526 11.2545 18.6716 11.2678C18.0838 11.2678 17.5093 11.2678 16.9081 11.2678C16.9215 11.3747 17.0016 11.4148 17.0551 11.4816C17.8166 12.2431 18.5781 13.0047 19.3396 13.7662C19.8473 14.2739 19.7538 15.0354 19.1526 15.3827C18.7384 15.6099 18.2708 15.5431 17.9101 15.1823C16.9883 14.2605 16.0664 13.3387 15.1446 12.4168C14.7972 12.0695 14.4632 11.7355 14.1159 11.3881C14.0357 11.2812 13.9422 11.2545 13.8353 11.2545C13.2875 11.2545 12.7398 11.2545 12.192 11.2545C12.0584 11.2545 12.005 11.2812 12.005 11.4282C12.0183 11.9759 12.0183 12.5371 12.005 13.0982C12.005 13.2318 12.0718 13.3119 12.1519 13.3921C13.4078 14.6479 14.6636 15.8904 15.9061 17.1463C16.4004 17.654 16.3336 18.4021 15.7591 18.7495C15.345 19.0033 14.864 18.9499 14.4766 18.5624C13.7151 17.8143 12.9669 17.0528 12.2054 16.2912C12.1519 16.2378 12.1119 16.171 12.0584 16.1042C12.0451 16.1309 12.0317 16.1443 12.005 16.1576Z" fill="#363C43"/>
</svg>
