<svg width="21" height="21" viewBox="0 0 21 21" fill="none" xmlns="http://www.w3.org/2000/svg">
<g id="Group 39">
<path id="Vector" d="M18.2058 7.71154C18.7194 7.7117 19.2124 7.70775 19.7095 7.71201C20.4613 7.72047 20.9871 8.2383 20.995 8.98193C20.999 9.37224 20.9989 9.76254 20.9947 10.1528C20.9904 10.8061 20.6369 11.2908 20.0124 11.4262C19.774 11.4754 19.7412 11.5617 19.7411 11.7712C19.7486 13.9199 19.7438 16.0686 19.7432 18.2133C19.7428 19.4253 18.9578 20.2056 17.7376 20.2052C13.2347 20.2038 8.73187 20.2024 4.22899 20.201C3.04165 20.2006 2.24896 19.4074 2.24933 18.2242C2.25 16.0878 2.24656 13.9555 2.25545 11.8191C2.25552 11.5973 2.25556 11.4658 1.96388 11.4082C1.35997 11.2888 1.0068 10.7875 1.00289 10.1589C0.998903 9.76859 0.999025 9.37829 1.00326 8.98799C1.01171 8.24025 1.53365 7.71453 2.27317 7.70244C2.55666 7.69842 2.92228 7.79303 3.1031 7.64929C3.30035 7.49734 3.15257 7.1152 3.17731 6.83173C3.24743 5.94021 3.63796 5.21724 4.32014 4.6546C4.48453 4.51907 4.49687 4.45334 4.35724 4.27663C3.65086 3.40131 3.60603 2.22216 4.21437 1.31028C4.81038 0.423035 5.90747 0.0125326 6.95093 0.288127C7.97385 0.559606 8.73773 1.49658 8.7908 2.59766C8.82347 3.23037 8.62608 3.80139 8.21508 4.29017C8.11644 4.40517 8.02603 4.4791 8.20676 4.61884C9.09397 5.31345 9.45933 6.25029 9.4179 7.35546C9.40548 7.65537 9.49585 7.71703 9.77933 7.71301C10.6051 7.69683 10.6092 7.70916 10.8765 6.92042C11.2302 5.89341 11.5756 4.8623 11.9334 3.83529C12.1925 3.09174 12.7349 2.70983 13.5237 2.71007C15.1096 2.71057 16.6996 2.71107 18.2854 2.71157C19.177 2.71185 19.6492 3.35291 19.3696 4.19917C19.0036 5.32067 18.6211 6.43394 18.2428 7.55132C18.2346 7.59651 18.2222 7.64581 18.2058 7.71154ZM11.0353 11.4562C8.64012 11.4555 6.24488 11.4588 3.84965 11.4457C3.55795 11.4457 3.48808 11.5155 3.4921 11.8072C3.50377 13.9148 3.49899 16.0266 3.49833 18.1342C3.49814 18.7382 3.71172 18.9519 4.31566 18.9521C8.76924 18.9534 13.2187 18.9548 17.6723 18.9562C18.2762 18.9564 18.494 18.7429 18.4942 18.1389C18.4949 16.0313 18.4914 13.9195 18.5044 11.8119C18.5045 11.5202 18.4388 11.4503 18.1471 11.4502C15.7765 11.4659 13.4059 11.457 11.0353 11.4562ZM11.0238 8.95826C8.38207 8.95743 5.74032 8.95661 3.09858 8.95578C2.25224 8.95551 2.27278 8.95552 2.24376 9.78953C2.23133 10.1264 2.30936 10.2168 2.65858 10.2128C8.06121 10.2022 13.4597 10.208 18.8624 10.2097C19.7498 10.21 19.7334 10.21 19.7542 9.33487C19.7625 9.03495 19.6886 8.94865 19.3804 8.95267C16.5908 8.96412 13.8093 8.95914 11.0238 8.95826ZM11.9445 7.70958C13.4112 7.71004 14.841 7.68584 16.2707 7.72326C16.7432 7.73573 16.9363 7.58789 17.0679 7.14422C17.3887 6.08433 17.767 5.0409 18.133 3.96049C16.5554 3.96 15.0229 3.95952 13.4863 3.95903C13.3056 3.95898 13.1823 4.04522 13.1288 4.20543C12.7341 5.36389 12.3434 6.52236 11.9445 7.70958ZM6.29536 7.70781C6.73907 7.70795 7.17868 7.70808 7.62239 7.70822C8.19347 7.7084 8.19347 7.7084 8.17311 7.12089C8.17312 7.08391 8.17313 7.04282 8.16904 7.00585C8.05439 5.75273 6.95768 4.96356 5.77845 5.28776C4.82931 5.5504 4.19216 6.64305 4.42605 7.58808C4.46708 7.75243 4.5698 7.70727 4.66019 7.70729C5.20251 7.70746 5.74893 7.70764 6.29536 7.70781ZM6.27678 1.45883C5.58655 1.46683 5.03995 2.03773 5.05616 2.74439C5.06827 3.42229 5.63096 3.9689 6.30886 3.96089C6.97854 3.95289 7.54569 3.38199 7.5459 2.71642C7.54611 2.0303 6.96289 1.45083 6.27678 1.45883Z" fill="#363C43"/>
<rect id="Rectangle 126" x="1.99902" y="8.20447" width="18" height="2" transform="rotate(0.0179669 1.99902 8.20447)" fill="#363C43"/>
</g>
</svg>
