<svg width="21" height="20" viewBox="0 0 21 20" fill="none" xmlns="http://www.w3.org/2000/svg">
<g id="Group 40">
<path id="Vector" d="M19.8234 8.13258C19.4756 8.1428 19.1925 8.00309 18.9504 7.76454C17.0371 5.8528 15.1203 3.94447 13.2105 2.02592C12.7262 1.53861 12.7262 0.805948 13.1832 0.349311C13.6504 -0.117549 14.3462 -0.120956 14.8577 0.36635C15.3182 0.805948 15.7752 1.25236 16.2083 1.71922C16.4198 1.94754 16.5528 1.99525 16.7744 1.73285C17.0507 1.40571 17.3713 1.11605 17.6816 0.819579C17.9954 0.519698 18.3296 0.519698 18.64 0.822986C19.1516 1.32392 19.6563 1.82827 20.1577 2.33943C20.4885 2.67679 20.4885 2.9869 20.1611 3.32086C19.8439 3.648 19.5301 3.97855 19.1925 4.28184C19.0049 4.45222 19.0322 4.54764 19.1993 4.7078C19.7041 5.19511 20.202 5.68923 20.6829 6.2038C21.0239 6.56843 21.0853 7.00803 20.8739 7.46466C20.6693 7.90085 20.3077 8.11895 19.8234 8.13258Z" fill="#363C43"/>
<path id="Vector_2" d="M9.13796 18.6692C9.13114 19.3065 8.90605 19.6677 8.4695 19.8756C8.03295 20.0834 7.60323 20.0323 7.23489 19.7154C6.96887 19.4871 6.73014 19.2281 6.47776 18.9827C6.15035 18.6658 5.83999 18.124 5.49553 18.1001C5.14084 18.0763 4.85094 18.6658 4.51671 18.9691C4.44168 19.0407 4.37006 19.1191 4.29503 19.1872C3.98126 19.4735 3.67431 19.4803 3.36737 19.1838C2.83533 18.6658 2.31011 18.1444 1.79512 17.6128C1.50523 17.313 1.51546 16.996 1.81217 16.6893C2.13617 16.352 2.46358 16.018 2.80804 15.6977C2.97516 15.5409 2.9547 15.4489 2.80122 15.299C2.3408 14.8594 1.89403 14.4028 1.44725 13.9495C0.884513 13.3804 0.846998 12.6853 1.34152 12.1911C1.82582 11.7072 2.55567 11.7447 3.10476 12.2934C4.97372 14.1574 6.83927 16.0248 8.70824 17.8923C8.96744 18.1513 9.14819 18.4375 9.13796 18.6692Z" fill="#363C43"/>
<path id="Vector_3" d="M10.7523 1.65111C11.0729 1.68518 11.3491 1.81468 11.5777 2.043C14.0332 4.49657 16.4922 6.94673 18.941 9.40711C19.4628 9.9319 19.4628 10.6305 18.9853 11.111C18.5112 11.5847 17.8018 11.5847 17.28 11.0667C14.8176 8.61993 12.3655 6.16636 9.91332 3.70597C9.48701 3.28 9.41197 2.80292 9.6473 2.32243C9.85534 1.89987 10.3089 1.62725 10.7523 1.65111Z" fill="#363C43"/>
<path id="Vector_4" d="M11.2437 18.3387C10.906 18.3081 10.6264 18.165 10.3876 17.9264C7.95252 15.4899 5.51059 13.0568 3.07889 10.6202C2.53662 10.075 2.51615 9.37981 2.99704 8.88909C3.48133 8.39838 4.18731 8.41201 4.72958 8.95043C7.18174 11.3904 9.62708 13.8337 12.069 16.2839C12.4953 16.7133 12.5738 17.1835 12.3419 17.6674C12.1406 18.0832 11.687 18.3626 11.2437 18.3387Z" fill="#363C43"/>
<path id="Vector_5" d="M10.4583 13.0023C10.3867 12.941 10.3287 12.8898 10.2775 12.8387C9.56813 12.1333 8.86557 11.4211 8.14936 10.7191C7.9993 10.5726 8.00953 10.4942 8.15277 10.3511C9.22367 9.28786 10.2878 8.22124 11.3484 7.14781C11.4951 6.99787 11.5769 7.00809 11.7168 7.15121C12.4193 7.86684 13.1287 8.57224 13.8415 9.27423C13.9609 9.3901 14.0154 9.46847 13.8654 9.61501C12.7774 10.6953 11.6963 11.7857 10.6118 12.8694C10.5674 12.9137 10.5163 12.9512 10.4583 13.0023Z" fill="#363C43"/>
</g>
</svg>
