<svg width="21" height="18" viewBox="0 0 21 18" fill="none" xmlns="http://www.w3.org/2000/svg">
<g id="Group 41">
<path id="Vector" d="M20.9961 18.0002C19.8861 18.0002 19.2661 17.6302 18.8161 17.3602C18.4461 17.1402 18.2161 17.0002 17.6661 17.0002C17.1061 17.0002 16.8861 17.1302 16.5161 17.3602C16.0561 17.6302 15.4461 18.0002 14.3361 18.0002C13.2261 18.0002 12.6061 17.6302 12.1561 17.3602C11.7861 17.1402 11.5561 17.0002 11.0061 17.0002C10.4461 17.0002 10.2261 17.1302 9.85609 17.3602C9.39609 17.6302 8.77609 18.0002 7.66609 18.0002C6.55609 18.0002 5.93609 17.6302 5.48609 17.3602C5.11609 17.1302 4.88609 17.0002 4.33609 17.0002C3.78609 17.0002 3.55609 17.1302 3.18609 17.3602C2.72609 17.6302 2.10609 18.0002 0.996094 18.0002V16.0002C1.55609 16.0002 1.77609 15.8702 2.14609 15.6402C2.60609 15.3702 3.22609 15.0002 4.33609 15.0002C5.44609 15.0002 6.06609 15.3702 6.51609 15.6402C6.88609 15.8702 7.10609 16.0002 7.66609 16.0002C8.22609 16.0002 8.44609 15.8702 8.81609 15.6402C9.27609 15.3702 9.89609 15.0002 11.0061 15.0002C12.1161 15.0002 12.7361 15.3702 13.1861 15.6402C13.5561 15.8602 13.7861 16.0002 14.3361 16.0002C14.8861 16.0002 15.1161 15.8702 15.4861 15.6402C15.9361 15.3702 16.5561 15.0002 17.6661 15.0002C18.7761 15.0002 19.3961 15.3702 19.8461 15.6402C20.2161 15.8702 20.4361 16.0002 20.9961 16.0002V18.0002ZM20.9961 13.5002C19.8861 13.5002 19.2661 13.1302 18.8161 12.8602C18.4461 12.6402 18.2161 12.5002 17.6661 12.5002C17.1061 12.5002 16.8861 12.6302 16.5161 12.8602C16.0661 13.1302 15.4461 13.5002 14.3361 13.5002C13.2261 13.5002 12.6061 13.1302 12.1561 12.8602C11.7861 12.6402 11.5561 12.5002 11.0061 12.5002C10.4461 12.5002 10.2261 12.6302 9.85609 12.8602C9.40609 13.1302 8.78609 13.5002 7.67609 13.5002C6.56609 13.5002 5.94609 13.1302 5.49609 12.8602C5.12609 12.6402 4.89609 12.5002 4.34609 12.5002C3.79609 12.5002 3.56609 12.6302 3.19609 12.8602C2.72609 13.1302 2.10609 13.5002 0.996094 13.5002V11.5002C1.55609 11.5002 1.77609 11.3702 2.14609 11.1402C2.59609 10.8702 3.21609 10.5002 4.32609 10.5002C5.43609 10.5002 6.05609 10.8702 6.50609 11.1402C6.87609 11.3602 7.10609 11.5002 7.65609 11.5002C8.21609 11.5002 8.43609 11.3702 8.80609 11.1402C9.25609 10.8702 9.87609 10.5002 10.9861 10.5002C12.0961 10.5002 12.7161 10.8702 13.1661 11.1402C13.5361 11.3602 13.7661 11.5002 14.3161 11.5002C14.8661 11.5002 15.0961 11.3702 15.4661 11.1402C15.9161 10.8702 16.5361 10.5002 17.6461 10.5002C18.7561 10.5002 19.3761 10.8702 19.8261 11.1402C20.1961 11.3602 20.4261 11.5002 20.9761 11.5002V13.5002H20.9961ZM7.66609 9.00016C8.22609 9.00016 8.44609 8.87016 8.81609 8.64016C9.27609 8.37016 9.89609 8.00016 11.0061 8.00016C12.1161 8.00016 12.7361 8.37016 13.1861 8.64016C13.5561 8.86016 13.7861 9.00016 14.3361 9.00016C14.8861 9.00016 15.1161 8.87016 15.4861 8.64016C15.6061 8.57016 15.7461 8.49016 15.8961 8.41016L9.47609 2.00016C7.92609 0.450159 6.49609 -0.00984116 3.99609 0.000158836V2.50016C5.81609 2.49016 6.88609 2.89016 7.99609 4.00016L8.99609 5.00016L5.74609 8.25016C6.05609 8.37016 6.30609 8.52016 6.51609 8.64016C6.88609 8.87016 7.10609 9.00016 7.66609 9.00016Z" fill="#ABABAB"/>
<path id="Vector_2" d="M15.4961 5.00024C16.8768 5.00024 17.9961 3.88096 17.9961 2.50024C17.9961 1.11953 16.8768 0.000244141 15.4961 0.000244141C14.1154 0.000244141 12.9961 1.11953 12.9961 2.50024C12.9961 3.88096 14.1154 5.00024 15.4961 5.00024Z" fill="#ABABAB"/>
</g>
</svg>
