<svg width="22" height="17" viewBox="0 0 22 17" fill="none" xmlns="http://www.w3.org/2000/svg">
<g id="Frame" clip-path="url(#clip0_187_1231)">
<path id="Vector" d="M4.98085 9.6417C3.69583 7.87921 4.48161 5.58258 6.525 4.95243C5.93916 3.73525 6.05947 2.72397 6.87905 1.93918C7.28712 1.54849 7.78085 1.31553 8.33622 1.30199C9.111 1.28166 9.89608 1.20306 10.6639 1.34043C12.3128 1.62892 13.1111 3.30212 12.3324 4.7897C12.3049 4.84455 12.2775 4.89596 12.2466 4.95766C13.3572 5.32825 14.0975 6.04154 14.3508 7.19006C14.5425 8.0506 14.3777 8.85959 13.8359 9.56563C13.6507 9.80554 13.7981 9.88101 13.966 9.87078C14.2334 9.85372 14.5111 9.82981 14.6998 9.55562C15.7184 8.07839 17.8164 8.07219 18.8273 9.5432C18.9267 9.68721 19.0363 9.76267 19.1975 9.81071C20.908 10.3152 21.5518 12.3209 20.4475 13.7295C20.3446 13.8598 20.324 13.9832 20.324 14.134C20.3268 15.9681 18.6912 17.1331 16.9465 16.5361C16.8025 16.4881 16.6962 16.4983 16.5625 16.5463C15.8665 16.8032 15.1843 16.7549 14.5296 16.4085C14.3857 16.333 14.276 16.3193 14.1183 16.3912C13.6074 16.6242 13.0657 16.7097 12.5001 16.7061C10.2409 16.6951 7.98172 16.7013 5.72255 16.7006C3.77192 16.6999 2.25363 15.431 2.04167 13.566C1.82286 11.6668 3.13294 10.0354 4.85399 9.7068C4.8917 9.6931 4.92256 9.66911 4.98085 9.6417ZM12.9613 10.7755C12.8379 10.7652 12.7659 10.7583 12.6939 10.7583C10.301 10.7575 7.90816 10.7568 5.51187 10.7595C5.35417 10.7594 5.18961 10.7731 5.03533 10.8107C3.82167 11.0983 3.01913 12.2054 3.14559 13.4018C3.27548 14.6395 4.31392 15.5791 5.57892 15.5829C7.93407 15.5905 10.2927 15.5844 12.6478 15.5886C12.8844 15.5886 13.1141 15.5407 13.3403 15.4894C13.4603 15.462 13.5186 15.4071 13.4398 15.2631C13.3062 15.0128 13.2035 14.7351 13.2207 14.454C13.2379 14.0838 13.1283 13.7889 12.9227 13.4735C12.3676 12.6025 12.4399 11.7009 12.9613 10.7755ZM9.39635 9.6328C10.0511 9.63301 10.7025 9.63321 11.3573 9.63342C11.8646 9.63357 12.3309 9.50002 12.715 9.15047C13.2534 8.66041 13.4524 7.87884 13.2092 7.1897C12.9524 6.46285 12.2943 5.98955 11.4407 5.979C10.0728 5.96143 8.705 5.97129 7.33373 5.97771C7.07662 5.97763 6.81949 6.02212 6.57948 6.12832C5.78061 6.47088 5.3484 7.30037 5.51267 8.18489C5.66326 8.99399 6.40698 9.60101 7.32573 9.62872C8.01479 9.64951 8.70728 9.63258 9.39635 9.6328ZM19.8858 12.2621C19.886 11.4839 19.3617 10.8975 18.6692 10.839C18.3744 10.8149 18.1516 10.7154 18.0351 10.4206C17.8159 9.85142 17.3806 9.57017 16.7807 9.56655C16.1807 9.56294 15.7418 9.84048 15.5154 10.4061C15.4056 10.6803 15.2136 10.8173 14.9291 10.831C14.3291 10.8651 13.9382 11.1906 13.746 11.7322C13.5436 12.2978 13.6874 12.8052 14.1467 13.1962C14.3832 13.3985 14.4482 13.6214 14.3727 13.9196C14.232 14.4818 14.4272 14.9446 14.8728 15.2876C15.3218 15.634 15.8326 15.7027 16.3229 15.408C16.6555 15.2093 16.916 15.2299 17.2416 15.4186C17.7421 15.7067 18.2495 15.6246 18.6918 15.2751C19.1204 14.9358 19.316 14.4799 19.1756 13.9348C19.0968 13.6228 19.1621 13.3863 19.4192 13.1841C19.7381 12.934 19.8685 12.5809 19.8858 12.2621ZM9.39784 4.85392C9.69267 4.85401 9.99092 4.86096 10.2857 4.8542C10.9817 4.83385 11.4995 4.34035 11.5168 3.689C11.5376 3.0068 11.0544 2.44786 10.3516 2.41335C9.71058 2.3823 9.06609 2.37867 8.42844 2.41275C7.72565 2.45024 7.24896 3.00203 7.27274 3.69453C7.29653 4.35617 7.80032 4.83628 8.50652 4.85364C8.80477 4.86059 9.09959 4.85382 9.39784 4.85392Z" fill="#ABABAB"/>
<path id="Vector_2" d="M3.2193 4.30684C3.23281 4.94106 3.00981 5.4895 2.59142 5.9556C1.97756 6.64447 1.94996 7.20325 2.50167 7.9302C2.73469 8.23538 2.72431 8.53363 2.47056 8.75295C2.23395 8.95514 1.89457 8.91733 1.64783 8.66014C0.801341 7.77883 0.777801 6.32184 1.59057 5.39306C2.26273 4.62536 2.28688 4.15914 1.68378 3.33276C1.50217 3.07216 1.52283 2.76363 1.7423 2.56486C1.96862 2.35924 2.26344 2.36619 2.51021 2.57882C2.93176 2.94233 3.2195 3.6452 3.2193 4.30684Z" fill="#ABABAB"/>
<path id="Vector_3" d="M15.9597 1.89391C15.9424 2.319 15.7709 2.79546 15.4142 3.19987C14.9238 3.75851 14.9031 4.15617 15.3349 4.74253C15.5542 5.04085 15.5335 5.35966 15.2798 5.56185C15.0363 5.75718 14.7038 5.70565 14.457 5.43817C13.7545 4.67004 13.7275 3.45988 14.3962 2.6579C14.9758 1.95873 14.9896 1.74276 14.4927 1.00555C14.3214 0.748381 14.3558 0.426143 14.5787 0.237663C14.8153 0.0389024 15.0998 0.0561325 15.3466 0.28247C15.703 0.615115 15.9599 1.24255 15.9597 1.89391Z" fill="#ABABAB"/>
<path id="Vector_4" d="M16.7821 14.4791C15.805 14.4822 15.0031 13.6901 15.0102 12.7302C15.0174 11.784 15.813 10.9958 16.7592 10.9892C17.7259 10.9861 18.5347 11.7885 18.5275 12.745C18.5238 13.698 17.742 14.476 16.7821 14.4791ZM16.7893 13.3649C17.1389 13.3582 17.4236 13.0635 17.4134 12.7241C17.4032 12.3812 17.1016 12.0966 16.7588 12.1034C16.416 12.1135 16.1245 12.4151 16.1347 12.7545C16.1414 13.0973 16.4362 13.3717 16.7893 13.3649Z" fill="#ABABAB"/>
<rect id="Rectangle 127" x="5.16797" y="5.93103" width="8.33333" height="4.16667" rx="2.08333" transform="rotate(0.0179669 5.16797 5.93103)" fill="#ABABAB"/>
</g>
<defs>
<clipPath id="clip0_187_1231">
<rect width="20" height="16.5992" fill="white" transform="translate(1.00293 0.0963135) rotate(0.0179669)"/>
</clipPath>
</defs>
</svg>
