<svg width="21" height="21" viewBox="0 0 21 21" fill="none" xmlns="http://www.w3.org/2000/svg">
<path id="Vector" d="M20.9925 10.2509C20.9925 8.94568 20.9925 7.63691 20.9925 6.33171C20.9925 4.33994 19.6727 3.02043 17.6663 3.01686C16.2214 3.01328 14.7765 3.01686 13.3315 3.01328C13.1992 3.01328 13.0562 3.04904 12.8988 2.95249C13.3995 2.55199 13.8752 2.17295 14.3473 1.7939C14.8122 1.41843 14.9124 0.967873 14.6119 0.585252C14.3151 0.206208 13.8358 0.199056 13.3745 0.563797C12.652 1.13594 11.9224 1.70093 11.2107 2.29095C11.014 2.45544 10.8995 2.42684 10.7243 2.27665C10.0268 1.66875 9.31868 1.07873 8.61768 0.477976C8.38163 0.277726 8.12412 0.188329 7.82727 0.284878C7.23714 0.4744 7.08692 1.19315 7.5626 1.62941C8.05974 2.08355 8.58191 2.50551 9.15773 2.99898C9.00394 3.00971 8.94314 3.01686 8.87877 3.01686C7.31582 3.01686 5.75645 3.00613 4.19351 3.02043C2.32299 3.03474 0.996094 4.38642 0.996094 6.26019C0.996094 9.47491 0.996094 12.6861 0.996094 15.9008C0.996094 17.2596 1.77935 18.4146 3.04545 18.8688C3.2958 18.9582 3.34945 19.0726 3.34587 19.3122C3.33514 19.8915 3.62842 20.2312 4.10767 20.2419C4.59051 20.2491 4.89809 19.9165 4.89809 19.3408C4.89809 19.1155 4.96604 19.0655 5.18063 19.0655C9.05759 19.0726 12.9381 19.0726 16.8151 19.0655C17.0333 19.0655 17.0941 19.1191 17.0941 19.3408C17.0941 19.9165 17.4016 20.2491 17.8845 20.2383C18.3637 20.2312 18.657 19.8879 18.6463 19.3086C18.6427 19.0655 18.6999 18.9582 18.9503 18.8688C20.1663 18.4289 21.0032 17.2382 20.996 16.0116C20.996 15.9902 20.9925 15.9723 20.9925 15.9544C20.9925 15.9401 20.996 15.9258 20.996 15.9079C20.9925 14.0234 20.9925 12.139 20.9925 10.2509ZM17.7414 17.5064C13.2386 17.5064 8.7357 17.5099 4.23285 17.5064C3.20997 17.5064 2.55904 16.8484 2.55904 15.8185C2.55546 12.6432 2.55904 9.46776 2.55904 6.29595C2.55904 5.23391 3.18493 4.5974 4.25431 4.59383C8.74286 4.59025 13.235 4.59025 17.7235 4.59383C18.8108 4.59383 19.4295 5.23033 19.4295 6.32456C19.4295 7.62976 19.4295 8.93853 19.4295 10.2437C19.4295 10.8087 19.4295 11.3737 19.4295 11.9423C19.4295 11.9888 19.4295 12.0353 19.4295 12.0782C19.4295 13.3154 19.4295 14.5491 19.4295 15.7864C19.4295 15.84 19.4295 15.8936 19.4295 15.9473C19.358 16.9163 18.725 17.5064 17.7414 17.5064Z" fill="#001833"/>
</svg>
